<?xml version="1.0" encoding="UTF-8"?><svg xmlns="http://www.w3.org/2000/svg" xmlns:xlink="http://www.w3.org/1999/xlink" height="362.9" preserveAspectRatio="xMidYMid meet" version="1.0" viewBox="31.6 94.3 434.5 362.9" width="434.5" zoomAndPan="magnify"><g id="change1_1"><path d="M 219.582031 420.980469 C 245.214844 416.546875 269.347656 404.351562 288.0625 386.269531 C 291.949219 382.515625 295.816406 378.363281 297.613281 373.164062 C 299.351562 368.144531 298.15625 362.972656 294.59375 359.074219 C 290.652344 354.761719 284.921875 352.328125 279.652344 350.085938 C 274.1875 347.757812 268.574219 345.773438 262.855469 344.160156 C 239.714844 337.621094 214.933594 337.035156 191.5 342.402344 C 179.589844 345.128906 167.613281 349.28125 157.101562 355.585938 C 146.882812 361.710938 138.113281 370.636719 134.902344 382.375 C 132.003906 392.96875 134.667969 403.957031 142.527344 411.703125 C 150.359375 419.425781 161.476562 423.308594 172.085938 425.296875 C 197.320312 430.023438 224.039062 427.316406 248.03125 418.324219 C 268.582031 410.621094 291.40625 397.703125 301.070312 376.933594 C 306.070312 366.1875 306.054688 354.367188 301.699219 343.390625 C 297.398438 332.539062 289.898438 322.957031 281.257812 315.199219 C 264.757812 300.386719 243.40625 291.914062 221.878906 287.640625 C 197.425781 282.785156 171.105469 282.242188 146.835938 288.34375 C 134.183594 291.519531 121.707031 296.757812 111.25 304.652344 C 102.316406 311.394531 95.929688 321.011719 98.835938 332.566406 C 105.152344 357.699219 137.027344 360.777344 158.324219 361.546875 C 184.277344 362.484375 210.273438 358.023438 234.847656 349.773438 C 259.359375 341.546875 282.824219 329.636719 304.078125 314.914062 C 321.355469 302.945312 338.882812 287.101562 343.871094 265.8125 C 349.390625 242.242188 336.648438 218.503906 317.816406 204.761719 C 297.925781 190.242188 272.347656 185.035156 248.164062 184.0625 C 221.976562 183.011719 194.59375 187.394531 170.636719 198.261719 C 160.074219 203.054688 149.921875 209.640625 142.925781 219.058594 C 136.3125 227.960938 133.214844 238.761719 133.230469 249.792969 C 133.261719 271.890625 144.535156 292.871094 160.175781 307.960938 C 175.796875 323.023438 196.285156 333.003906 217.6875 336.441406 C 241.640625 340.285156 266.320312 335.632812 288.074219 325.210938 C 299.347656 319.8125 309.835938 312.84375 319.269531 304.652344 C 328.023438 297.054688 336.546875 288.292969 341.640625 277.746094 C 346.460938 267.777344 347.222656 256.476562 341.5 246.691406 C 335.515625 236.457031 324.6875 229.90625 313.90625 225.726562 C 289.476562 216.253906 261.621094 216.300781 236.027344 220.085938 C 209.46875 224.015625 182.730469 232.796875 160.03125 247.339844 C 149.660156 253.980469 140.09375 262.121094 132.722656 272.042969 C 126.03125 281.054688 121.351562 291.386719 118.847656 302.328125 C 113.832031 324.238281 117.265625 347.714844 127.460938 367.65625 C 138.324219 388.910156 156.269531 406.007812 176.796875 417.886719 C 197.210938 429.703125 220.414062 436.390625 243.941406 437.695312 C 267.277344 438.992188 290.992188 434.929688 312.296875 425.230469 C 332.515625 416.023438 351.757812 401.402344 361.894531 381.183594 C 367.109375 370.785156 369.335938 359.214844 368.050781 347.632812 C 366.617188 334.691406 361.46875 322.382812 354.65625 311.378906 C 342.550781 291.820312 324.734375 276.140625 304.523438 265.339844 C 282.824219 253.742188 258.472656 248.019531 233.949219 247.273438 C 207.847656 246.480469 181.207031 250.988281 156.675781 259.90625 C 133.605469 268.292969 111.445312 282.605469 100.902344 305.617188 C 95.992188 316.328125 94.320312 328.019531 96.21875 339.664062 C 98.25 352.113281 103.878906 363.871094 111.289062 374.003906 C 124.09375 391.503906 142.488281 404.191406 162.640625 411.839844 C 185 420.328125 209.179688 422.328125 232.796875 419.070312 C 260.027344 415.316406 286 405.1875 310 392.019531 C 334.898438 378.363281 357.742188 361.335938 380.152344 343.992188 C 391.429688 335.265625 402.625 326.429688 413.992188 317.816406 C 418.578125 314.339844 423.300781 310.226562 429.015625 308.792969 C 431.6875 308.125 434.578125 308.308594 436.820312 310.054688 C 439.394531 312.058594 440.351562 315.46875 440.757812 318.566406 C 441.613281 325.140625 441.265625 332.03125 440.976562 338.636719 C 440.660156 345.757812 439.976562 352.859375 438.917969 359.90625 C 437.082031 372.132812 434.175781 384.273438 429.558594 395.761719 C 425.066406 406.929688 418.960938 417.511719 410.824219 426.429688 C 402.175781 435.902344 391.292969 443.257812 379.332031 447.875 C 356.523438 456.679688 330.9375 454.933594 309.488281 443.238281 C 298.847656 437.441406 289.636719 429.378906 282.398438 419.660156 C 274.347656 408.855469 268.683594 396.492188 264.128906 383.867188 C 254.191406 356.308594 248.5 327.425781 239.570312 299.546875 C 231.828125 275.378906 221.699219 249.625 200.421875 234.179688 C 182.4375 221.125 159.328125 216.730469 137.480469 218.964844 C 113.945312 221.367188 91.445312 231.460938 73.289062 246.511719 C 54.964844 261.699219 40.050781 282.699219 34.472656 306.0625 C 31.691406 317.699219 31.582031 329.886719 35.011719 341.402344 C 38.40625 352.8125 44.894531 363.15625 53.089844 371.734375 C 70.207031 389.660156 94.261719 398.652344 118.394531 402.011719 C 144.835938 405.691406 172.046875 403.699219 198.019531 397.828125 C 224.703125 391.796875 250.351562 381.464844 274.113281 367.964844 C 297.226562 354.828125 318.585938 338.730469 338.160156 320.773438 C 348.027344 311.71875 357.445312 302.179688 366.445312 292.261719 C 374.234375 283.671875 381.96875 272.171875 393.402344 268.1875 C 399.195312 266.167969 404.960938 267.464844 409.285156 271.839844 C 413.71875 276.324219 416.878906 282.425781 419.703125 288.007812 C 425.65625 299.761719 429.550781 312.757812 429.984375 325.980469 C 430.75 349.191406 419.132812 373.457031 397.324219 383.445312 C 373.882812 394.179688 347.460938 382.800781 331.039062 365.058594 C 312.503906 345.039062 303.1875 317.859375 297.796875 291.601562 C 292.15625 264.132812 290.441406 236.058594 286.222656 208.367188 C 284.285156 195.648438 282.113281 182.695312 278.117188 170.433594 C 275.097656 161.152344 270.6875 151.789062 263.585938 144.914062 C 256.09375 137.660156 245.976562 134.804688 235.8125 137.433594 C 223.675781 140.570312 213.425781 149.425781 204.003906 157.28125 C 184.847656 173.25 167.820312 191.71875 153.347656 212.027344 C 146.074219 222.234375 139.457031 232.914062 133.570312 243.980469 C 127.65625 255.089844 122.050781 266.644531 118.660156 278.804688 C 115.367188 290.625 114.5 303.28125 118.304688 315.097656 C 121.703125 325.648438 128.824219 334.621094 138.875 339.484375 C 157.90625 348.691406 180.90625 343.21875 199.679688 336.179688 C 222.886719 327.476562 244.535156 314.8125 263.605469 298.992188 C 282.597656 283.242188 299.589844 264.183594 311.996094 242.785156 C 317.78125 232.808594 321.746094 221.351562 317.886719 209.9375 C 314.203125 199.054688 305.136719 190.605469 294.769531 186.074219 C 283.4375 181.117188 270.832031 180.15625 258.605469 180.445312 C 245.675781 180.75 232.769531 182.527344 220.21875 185.648438 C 194.984375 191.917969 171.050781 203.691406 150.824219 220.054688 C 141.238281 227.8125 132.277344 236.519531 125.285156 246.730469 C 118.3125 256.910156 113.929688 268.46875 112.597656 280.746094 C 110.023438 304.546875 117.792969 328.757812 131.335938 348.210938 C 144.550781 367.191406 163.316406 382.257812 184.539062 391.394531 C 206.929688 401.035156 231.878906 403.953125 256.019531 401.253906 C 280.75 398.492188 304.527344 389.957031 325.742188 377.019531 C 347.414062 363.804688 366.335938 346.289062 382.101562 326.457031 C 396.921875 307.816406 411.855469 285.890625 413.535156 261.414062 C 414.398438 248.867188 411.265625 236.328125 412.640625 223.800781 C 413.761719 213.613281 418.28125 202.867188 428.070312 198.339844 C 429.140625 197.84375 428.597656 196.363281 427.703125 196.070312 C 407.457031 189.4375 386.890625 183.785156 366.089844 179.179688 C 355.753906 176.890625 345.367188 174.855469 334.933594 173.082031 C 324.929688 171.378906 314.828125 169.96875 304.664062 169.929688 C 295 169.894531 285.121094 171.105469 276.164062 174.894531 C 267.855469 178.410156 260.769531 184.035156 255.429688 191.300781 C 244.664062 205.929688 240.519531 224.972656 238.554688 242.699219 C 236.359375 262.476562 237.613281 282.695312 242.460938 302.007812 C 246.34375 317.476562 254.066406 334.515625 270.082031 340.4375 C 286.472656 346.5 304.425781 338.777344 318.367188 330.195312 C 334.308594 320.386719 348.304688 307.394531 359.289062 292.242188 C 369.613281 278.003906 379.835938 260.15625 377.445312 241.882812 C 375.097656 223.90625 361.695312 209.289062 345.984375 201.316406 C 329.46875 192.933594 310.257812 190.441406 291.949219 189.8125 C 273.78125 189.191406 255.0625 191.089844 238.039062 197.773438 C 221.214844 204.375 207.101562 215.851562 198.253906 231.722656 C 188.9375 248.4375 184.933594 268.164062 184.171875 287.136719 C 183.382812 306.742188 186.355469 326.886719 193.53125 345.191406 C 199.863281 361.339844 210.277344 376.78125 226.269531 384.578125 C 255.160156 398.667969 290.746094 384.4375 311.363281 362.34375 C 317.226562 356.066406 322.410156 348.675781 324.171875 340.125 C 325.964844 331.414062 324.015625 322.558594 320.144531 314.683594 C 312.207031 298.515625 297.136719 286.128906 282.109375 276.777344 C 266.859375 267.296875 249.773438 260.691406 232.089844 257.535156 C 213.769531 254.265625 193.949219 254.382812 176.667969 262.015625 C 160.472656 269.167969 149.246094 282.886719 144.269531 299.75 C 139.507812 315.882812 140.304688 333.40625 145.015625 349.453125 C 154.546875 381.902344 179.960938 408.726562 210.390625 422.773438 C 243.492188 438.054688 281.976562 438.019531 316.621094 428.261719 C 325.691406 425.707031 334.566406 422.476562 343.171875 418.636719 C 350.84375 415.210938 358.425781 411.429688 365.246094 406.484375 C 371.488281 401.957031 377.238281 396.402344 380.78125 389.46875 C 384.734375 381.730469 385.179688 372.980469 382.832031 364.675781 C 380.328125 355.804688 375.238281 347.835938 369.742188 340.535156 C 364.714844 333.859375 359.109375 327.613281 353.023438 321.886719 C 340.929688 310.503906 326.933594 301.113281 311.859375 294.144531 C 296.726562 287.148438 280.496094 282.5625 263.910156 280.78125 C 245.394531 278.796875 224.355469 279.214844 207.972656 289.121094 C 193.761719 297.71875 184.507812 313.800781 189.007812 330.492188 C 193.53125 347.277344 208.367188 358.742188 224.527344 363.328125 C 242.761719 368.503906 262.816406 366.847656 281.292969 363.945312 C 301.261719 360.808594 320.761719 354.980469 339.1875 346.675781 C 357.351562 338.492188 374.421875 327.949219 389.785156 315.261719 C 402.976562 304.367188 416.140625 290.679688 418.3125 272.90625 C 420.59375 254.222656 410.519531 236.679688 398.601562 223.136719 C 387.144531 210.117188 373.058594 199.152344 358.003906 190.605469 C 328.726562 173.984375 293.097656 166.121094 259.988281 174.566406 C 242.535156 179.015625 225.628906 189.390625 220.0625 207.449219 C 217.664062 215.242188 217.804688 223.808594 221.347656 231.230469 C 224.953125 238.78125 231.703125 244.507812 239.25 247.910156 C 256.726562 255.804688 277.480469 251.425781 294.925781 245.683594 C 314.160156 239.347656 332.082031 229.214844 347.417969 215.988281 C 360.210938 204.960938 372.191406 190.605469 373.445312 173.054688 C 374.714844 155.285156 364.261719 139.214844 351.570312 127.734375 C 338.296875 115.726562 321.609375 107.441406 304.636719 102.0625 C 287.351562 96.585938 269.039062 94.261719 250.933594 95.320312 C 232.304688 96.410156 213.449219 100.929688 197.25 110.421875 C 182.191406 119.242188 170.539062 132.523438 163.992188 148.710938 C 157.921875 163.71875 156.042969 180.109375 156.4375 196.203125 C 156.871094 214.078125 159.96875 231.945312 164.464844 249.222656 C 169.535156 268.703125 177.289062 287.847656 190.242188 303.472656 C 201.667969 317.253906 216.871094 327.882812 234.515625 331.753906 C 251.789062 335.546875 269.835938 333.03125 286.488281 327.644531 C 302.855469 322.351562 318.796875 314.511719 332.894531 304.636719 C 345.75 295.628906 357.761719 284.148438 364.203125 269.582031 C 367.597656 261.902344 369.128906 253.726562 368.984375 245.339844 C 368.808594 235.144531 366.675781 224.96875 367.703125 214.761719 C 369.410156 197.828125 380.039062 181.019531 396.898438 175.933594 C 404.808594 173.546875 413.644531 173.683594 421.308594 176.90625 C 429.921875 180.527344 435.839844 187.882812 439.585938 196.253906 C 443.546875 205.101562 445.542969 214.8125 447.4375 224.269531 C 449.414062 234.144531 450.914062 244.113281 451.945312 254.132812 C 454.019531 274.261719 454.210938 294.582031 452.519531 314.746094 C 450.828125 334.902344 447.351562 355.082031 441.695312 374.515625 C 436.269531 393.140625 427.238281 412.050781 409.679688 421.984375 C 401.625 426.542969 392.304688 428.386719 383.136719 427.023438 C 375.035156 425.820312 367.433594 422.441406 360.589844 418.023438 C 344.898438 407.886719 333.242188 392.558594 323.308594 377.015625 C 301.316406 342.605469 287.695312 303.492188 264.316406 269.902344 C 253.832031 254.84375 240.960938 239.847656 222.992188 233.882812 C 214.609375 231.101562 205.335938 230.433594 196.8125 232.996094 C 188.554688 235.476562 181.574219 240.910156 176.144531 247.496094 C 170.480469 254.371094 166.308594 262.347656 162.863281 270.519531 C 159.152344 279.316406 156.097656 288.386719 153.730469 297.636719 C 149.023438 316.023438 147.011719 335.121094 147.769531 354.089844 C 149.09375 387.167969 157.925781 430.527344 195.3125 439.613281 C 210.851562 443.390625 227.394531 440.746094 242.410156 435.980469 C 250.523438 433.402344 258.390625 430.085938 266.039062 426.355469 C 274.738281 422.117188 283.121094 417.160156 290.539062 410.90625 C 303.644531 399.855469 313.558594 383.667969 313.082031 366.054688 C 312.597656 348.128906 300.304688 334.167969 285.789062 325.046875 C 270.480469 315.421875 252.378906 309.753906 234.652344 306.679688 C 216.71875 303.566406 198.289062 303.308594 180.273438 305.910156 C 162.371094 308.5 144.910156 313.855469 128.734375 321.972656 C 121.300781 325.703125 113.734375 330.160156 108.539062 336.820312 C 103.722656 342.996094 101.71875 350.683594 103.460938 358.375 C 107.308594 375.359375 124.359375 385.714844 139.789062 390.566406 C 157.996094 396.289062 177.621094 396.238281 196.433594 394.355469 C 236.683594 390.324219 275.855469 376.078125 309.316406 353.351562 C 323.785156 343.523438 338.917969 332.117188 347.945312 316.796875 C 351.960938 309.980469 354.515625 302.265625 354.453125 294.304688 C 354.382812 284.636719 350.441406 275.542969 344.992188 267.714844 C 339.113281 259.273438 331.640625 252.113281 324.089844 245.191406 C 316.214844 237.96875 308.109375 230.996094 299.882812 224.179688 C 282.863281 210.074219 265.378906 196.539062 248.023438 182.859375 C 230.257812 168.859375 212.519531 154.824219 194.726562 140.859375 C 188.015625 135.59375 180.675781 130.207031 171.808594 129.878906 C 162.671875 129.542969 154.445312 134.664062 147.902344 140.578125 C 141.183594 146.652344 135.5 153.996094 130.28125 161.371094 C 125.242188 168.496094 120.742188 176 116.8125 183.789062 C 108.855469 199.566406 103.207031 216.53125 100.179688 233.945312 C 98.683594 242.53125 97.816406 251.234375 97.613281 259.949219 C 97.382812 269.671875 97.664062 280.019531 102.234375 288.84375 C 109.625 303.105469 126.40625 306.945312 141.234375 306.398438 C 150.210938 306.0625 159.121094 304.246094 167.800781 302.011719 C 177.785156 299.4375 187.550781 296.015625 196.964844 291.804688 C 214.273438 284.066406 231.414062 273.8125 244.746094 260.171875 C 255.871094 248.785156 264.78125 233.570312 262.660156 217.097656 C 260.269531 198.511719 245.699219 184.355469 230.324219 175.191406 C 221.679688 170.035156 212.449219 165.972656 203.359375 161.679688 C 198.933594 159.585938 194.488281 157.472656 190.21875 155.066406 C 187.675781 153.636719 186.699219 151.820312 188.648438 149.339844 C 190.148438 147.433594 192.417969 146.132812 194.445312 144.867188 C 203.582031 139.160156 213.847656 135.570312 224.207031 132.796875 C 234.066406 130.152344 244.109375 128.1875 254.238281 126.925781 C 274.457031 124.40625 295.03125 124.585938 315.191406 127.539062 C 333.648438 130.238281 352.460938 134.8125 368.992188 143.691406 C 385.6875 152.65625 398.710938 166.511719 404.3125 184.859375 C 410.101562 203.820312 407.949219 224.253906 400.699219 242.503906 C 393.671875 260.1875 382.363281 276.597656 368.910156 290.007812 C 355.589844 303.28125 338.566406 313.535156 319.328125 313.984375 C 310.566406 314.1875 301.699219 312.347656 294.050781 307.972656 C 286.363281 303.570312 280.441406 296.746094 276.355469 288.953125 C 267.917969 272.859375 266.566406 253.097656 269.066406 235.355469 C 271.578125 217.523438 279.007812 200.253906 292.929688 188.394531 C 306.582031 176.761719 324.636719 171.402344 342.332031 170.683594 C 360.179688 169.953125 378.242188 173.742188 394.234375 181.710938 C 409.699219 189.417969 423.84375 201.382812 430.980469 217.429688 C 438.136719 233.515625 436.855469 251.996094 429.179688 267.65625 C 420.929688 284.484375 405.867188 296.691406 388.304688 302.84375 C 354.132812 314.816406 306.664062 304.90625 292.933594 267.625 C 289.71875 258.90625 288.824219 249.40625 290.996094 240.332031 C 292.878906 232.441406 296.9375 225.246094 302.242188 219.148438 C 313.074219 206.695312 328.332031 198.585938 343.804688 193.421875 C 363.269531 186.921875 383.886719 184.046875 404.386719 184.867188 C 414.460938 185.273438 424.703125 186.402344 434.488281 188.898438 C 442.960938 191.054688 451.820312 194.960938 455.898438 203.210938 C 460.242188 212.003906 457.632812 222.507812 453.640625 230.910156 C 449.644531 239.316406 443.800781 246.917969 437.46875 253.691406 C 425.023438 267.003906 409.378906 277.3125 392.273438 283.582031 C 375.949219 289.570312 357.769531 292.371094 340.539062 289.132812 C 324.792969 286.167969 308.484375 277.632812 302.871094 261.648438 C 297.164062 245.410156 304.414062 226.175781 319.253906 217.582031 C 334.550781 208.726562 354.667969 211.265625 367.359375 223.46875 C 380.230469 235.847656 384.085938 254.703125 378.140625 271.359375 C 371.800781 289.121094 356.746094 302.0625 339.929688 309.648438 C 320.605469 318.371094 298.929688 321.386719 277.980469 323.171875 C 257.117188 324.945312 236.164062 325.085938 215.246094 325.730469 C 194.542969 326.367188 173.792969 327.519531 153.378906 331.210938 C 143.9375 332.914062 133.488281 334.984375 126.472656 342.089844 C 121.007812 347.625 118.179688 355.988281 121.636719 363.324219 C 125.488281 371.511719 134.972656 376.667969 142.824219 380.285156 C 151.652344 384.355469 161.070312 387.015625 170.46875 389.402344 C 189.445312 394.226562 209.074219 397.480469 228.710938 397.023438 C 247.558594 396.582031 266.546875 392.464844 282.75 382.515625 C 297.03125 373.746094 308.308594 360.679688 315.445312 345.554688 C 322.53125 330.546875 325.632812 313.648438 323.964844 297.117188 C 322.152344 279.171875 315.085938 261.902344 304.3125 247.476562 C 282.617188 218.421875 247.101562 203.136719 211.191406 203.945312 C 192.652344 204.363281 172.425781 208.433594 157.863281 220.613281 C 144.992188 231.378906 138.535156 247.621094 136.320312 263.90625 C 134.039062 280.660156 135.601562 297.941406 139.617188 314.3125 C 143.722656 331.03125 150.734375 347.191406 160.777344 361.203125 C 170.703125 375.050781 183.636719 386.703125 198.9375 394.308594 C 215.8125 402.695312 234.648438 406.210938 253.324219 407.4375 C 294.664062 410.148438 337.152344 402.925781 375.144531 386.34375 C 390.347656 379.707031 405.367188 370.945312 416.136719 358.074219 C 427 345.085938 431.632812 328.671875 428.9375 311.921875 C 426.082031 294.222656 416.519531 278.0625 404.839844 264.738281 C 393.894531 252.265625 380.804688 241.707031 366.46875 233.371094 C 337.617188 216.59375 303.433594 208.6875 270.15625 211.816406 C 261.761719 212.605469 253.332031 214.003906 245.226562 216.351562 C 236.785156 218.792969 228.40625 222.527344 222.128906 228.835938 C 217.609375 233.375 212.210938 242.136719 219.472656 246.921875 C 225.273438 250.742188 233.3125 248.535156 239.261719 246.378906 C 273.246094 234.054688 303.605469 212.265625 326.21875 184.066406 C 327.214844 182.824219 325.402344 181.113281 324.394531 182.367188 C 312.269531 197.488281 297.949219 210.773438 281.941406 221.699219 C 274.058594 227.082031 265.789062 231.898438 257.210938 236.082031 C 252.734375 238.269531 248.175781 240.273438 243.542969 242.101562 C 239.636719 243.644531 235.609375 245.394531 231.441406 246.082031 C 228.117188 246.632812 224.03125 246.789062 221.042969 244.972656 C 217.171875 242.617188 218.234375 238.039062 220.375 234.828125 C 225.511719 227.117188 234.28125 222.535156 242.847656 219.695312 C 258.675781 214.445312 276.046875 212.992188 292.628906 213.855469 C 325.542969 215.5625 358.007812 227.675781 383.824219 248.199219 C 397.148438 258.789062 409.039062 271.621094 417.277344 286.59375 C 425.839844 302.160156 430.375 320.714844 424.691406 338.054688 C 419.488281 353.933594 406.703125 365.824219 392.832031 374.402344 C 376.988281 384.199219 359.011719 390.71875 341.144531 395.710938 C 321.042969 401.324219 300.292969 404.554688 279.4375 405.308594 C 260.011719 406.007812 240.136719 404.972656 221.277344 399.96875 C 203.996094 395.386719 188.179688 386.976562 175.355469 374.441406 C 163.261719 362.628906 154.132812 347.949219 147.941406 332.269531 C 141.648438 316.335938 138.152344 299.195312 137.804688 282.066406 C 137.46875 265.644531 140.136719 248.339844 149.136719 234.289062 C 159.699219 217.792969 178.273438 210.269531 197.015625 207.601562 C 214.507812 205.113281 232.527344 206.507812 249.394531 211.796875 C 284.070312 222.664062 311.96875 251.167969 319.839844 286.980469 C 327.035156 319.734375 314.617188 356.230469 287.410156 376.371094 C 255.828125 399.746094 213.265625 396.886719 177.007812 388.429688 C 167.515625 386.21875 157.949219 383.761719 148.871094 380.167969 C 144.429688 378.410156 140.101562 376.351562 136.027344 373.855469 C 131.984375 371.375 127.859375 368.460938 125.160156 364.484375 C 119.730469 356.484375 123.835938 346.632812 131.101562 341.398438 C 139.535156 335.320312 150.972656 333.972656 160.980469 332.449219 C 201.476562 326.289062 242.628906 329.214844 283.300781 325.175781 C 318.839844 321.648438 362.40625 312.585938 378.742188 276.46875 C 385.511719 261.507812 384.996094 244.328125 376.125 230.324219 C 367.316406 216.410156 351.65625 208.390625 335.179688 210.015625 C 319.203125 211.589844 305.683594 221.847656 300.558594 237.160156 C 295.589844 251.996094 299.792969 268.144531 311.503906 278.535156 C 323.09375 288.8125 339.367188 292.824219 354.546875 292.96875 C 371.664062 293.132812 388.90625 288.625 404.25 281.179688 C 419.867188 273.597656 433.902344 262.585938 444.792969 249.050781 C 454.75 236.679688 466.035156 217.976562 458.007812 201.886719 C 454.367188 194.589844 447.105469 190.3125 439.621094 187.800781 C 430.867188 184.867188 421.40625 183.675781 412.242188 182.878906 C 392.648438 181.179688 372.753906 182.886719 353.726562 187.867188 C 324.761719 195.453125 289.460938 213.898438 287.382812 247.789062 C 286.300781 265.425781 295.269531 282.792969 308.832031 293.730469 C 321.996094 304.351562 338.914062 309.519531 355.671875 310.171875 C 374.039062 310.882812 392.929688 306.078125 408.136719 295.601562 C 421.929688 286.097656 432.101562 271.886719 436.257812 255.617188 C 440.289062 239.855469 438.023438 223.246094 429.519531 209.335938 C 420.867188 195.183594 407 184.707031 392.050781 177.914062 C 362.035156 164.28125 322.457031 163.34375 295.039062 183.566406 C 281.359375 193.65625 272.605469 208.554688 268.546875 224.90625 C 264.441406 241.453125 264.28125 259.683594 268.769531 276.167969 C 273.148438 292.253906 283.046875 306.929688 299.066406 313.09375 C 314.621094 319.078125 332.273438 316.734375 346.929688 309.371094 C 363.625 300.980469 376.808594 286.714844 387.46875 271.644531 C 397.910156 256.882812 406.050781 240.09375 408.980469 222.136719 C 411.925781 204.058594 409.398438 184.6875 399.964844 168.796875 C 391.117188 153.894531 376.515625 143.671875 360.789062 137.023438 C 343.761719 129.824219 325.238281 125.960938 306.914062 123.996094 C 287.449219 121.90625 267.726562 122.3125 248.363281 125.234375 C 229.257812 128.121094 208.90625 132.644531 192.433594 143.191406 C 189.527344 145.050781 185.648438 147.445312 185.058594 151.191406 C 184.402344 155.34375 188.769531 157.152344 191.761719 158.726562 C 200.335938 163.230469 209.253906 167.035156 217.925781 171.335938 C 234.679688 179.648438 252.148438 191.195312 258.4375 209.808594 C 264.054688 226.433594 256.910156 242.886719 245.816406 255.367188 C 233.417969 269.320312 216.730469 279.703125 200.007812 287.675781 C 190.679688 292.125 180.960938 295.761719 171.011719 298.5625 C 162.097656 301.074219 152.902344 303.15625 143.640625 303.777344 C 128.285156 304.804688 110.199219 301.417969 103.480469 285.6875 C 99.597656 276.597656 99.796875 266.148438 100.21875 256.453125 C 100.59375 247.839844 101.628906 239.265625 103.289062 230.804688 C 106.652344 213.660156 112.550781 197.035156 120.75 181.605469 C 124.847656 173.894531 129.507812 166.472656 134.71875 159.46875 C 140.191406 152.105469 146.160156 144.648438 153.542969 139.117188 C 161.320312 133.289062 170.714844 130.316406 180.035156 134.289062 C 184.152344 136.046875 187.832031 138.664062 191.359375 141.382812 C 195.578125 144.636719 199.738281 147.96875 203.921875 151.269531 C 221.273438 164.941406 238.625 178.613281 255.976562 192.289062 C 272.765625 205.523438 289.652344 218.652344 305.9375 232.511719 C 313.882812 239.269531 321.761719 246.160156 329.234375 253.441406 C 336.378906 260.398438 343.21875 268.023438 347.644531 277.042969 C 351.832031 285.570312 353.148438 295.128906 350.628906 304.347656 C 348.480469 312.199219 343.960938 319.222656 338.691406 325.34375 C 332.933594 332.03125 326.195312 337.773438 319.214844 343.132812 C 311.265625 349.234375 302.929688 354.835938 294.28125 359.894531 C 260.078125 379.902344 220.695312 391.679688 181.039062 392.882812 C 162.542969 393.445312 142.808594 391.457031 126.394531 382.234375 C 112.378906 374.359375 98.8125 356.96875 108.742188 340.847656 C 113.125 333.730469 120.617188 329 127.863281 325.210938 C 135.875 321.019531 144.261719 317.554688 152.863281 314.777344 C 170.105469 309.222656 188.214844 306.5 206.320312 306.628906 C 224.421875 306.757812 242.5 309.761719 259.625 315.65625 C 276.089844 321.320312 293.480469 329.871094 303.523438 344.707031 C 313.699219 359.734375 311.929688 378.347656 302.683594 393.363281 C 292.5 409.902344 274.738281 420.011719 257.425781 427.621094 C 229.246094 440.011719 190.140625 447.597656 168.554688 419.417969 C 157.367188 404.820312 153.320312 385.683594 151.308594 367.777344 C 149.195312 348.996094 149.867188 329.910156 153.277344 311.324219 C 156.574219 293.359375 162.105469 274.953125 171.242188 259.046875 C 175.691406 251.300781 181.421875 243.972656 189.097656 239.210938 C 196.8125 234.425781 205.957031 232.976562 214.863281 234.4375 C 234.164062 237.597656 248.410156 252.234375 259.453125 267.363281 C 271.136719 283.375 280.441406 300.945312 289.304688 318.628906 C 298.183594 336.335938 306.667969 354.28125 316.847656 371.300781 C 326.15625 386.863281 336.863281 402.320312 350.933594 413.976562 C 362.925781 423.910156 378.152344 431.542969 394.128906 429.683594 C 412.316406 427.570312 426.59375 414.019531 434.949219 398.453125 C 443.917969 381.742188 448.027344 362.277344 451.269531 343.742188 C 454.640625 324.480469 456.269531 304.90625 456.144531 285.347656 C 456.019531 265.914062 454.148438 246.5 450.566406 227.398438 C 447.421875 210.621094 444.015625 189.730469 429.445312 178.734375 C 417.148438 169.460938 399.257812 169.808594 386.5 177.988281 C 372.742188 186.8125 365.296875 203.128906 364.960938 219.15625 C 364.753906 229.125 366.800781 238.996094 366.46875 248.964844 C 366.195312 257.113281 363.964844 265.023438 360.15625 272.214844 C 352.613281 286.445312 339.871094 297.355469 326.488281 305.929688 C 311.90625 315.269531 295.726562 322.78125 278.980469 327.269531 C 262.050781 331.804688 243.886719 332.871094 227.113281 327.089844 C 210.167969 321.25 196.207031 308.710938 186.265625 294.042969 C 174.378906 276.5 168.0625 255.867188 163.777344 235.304688 C 157.3125 204.261719 154.628906 168.398438 171.070312 139.84375 C 189.984375 106.988281 230.984375 96.003906 266.636719 97.734375 C 284.664062 98.609375 302.558594 102.84375 319.050781 110.175781 C 335.429688 117.464844 351.214844 127.792969 361.601562 142.703125 C 366.546875 149.804688 370.164062 157.984375 370.910156 166.675781 C 371.660156 175.492188 369.339844 184.101562 365.035156 191.765625 C 360.875 199.179688 355.132812 205.609375 348.902344 211.347656 C 341.421875 218.234375 333.167969 224.300781 324.4375 229.507812 C 307.386719 239.671875 287.652344 247.257812 267.796875 249.246094 C 250.519531 250.976562 228.886719 245.839844 222.46875 227.457031 C 219.601562 219.242188 220.925781 210.113281 224.730469 202.429688 C 228.894531 194.011719 235.957031 187.640625 244.152344 183.222656 C 259.667969 174.859375 278.601562 172.816406 295.972656 173.933594 C 329.734375 176.101562 362.003906 191.882812 386.707031 214.613281 C 400.058594 226.898438 413.050781 242.675781 415.699219 261.222656 C 417.007812 270.351562 415.3125 279.449219 411.011719 287.585938 C 406.988281 295.203125 401.160156 301.722656 394.875 307.546875 C 365.992188 334.324219 328.289062 352.238281 289.824219 359.914062 C 280.03125 361.867188 270.105469 363.148438 260.136719 363.734375 C 251.019531 364.273438 241.789062 364.214844 232.769531 362.640625 C 215.417969 359.617188 198.46875 349.925781 192.265625 332.5625 C 189.367188 324.441406 189.6875 315.648438 193.53125 307.890625 C 197.375 300.128906 204.007812 293.957031 211.609375 289.925781 C 221.074219 284.902344 231.90625 283.050781 242.511719 282.574219 C 251.019531 282.191406 259.574219 282.609375 268.007812 283.777344 C 300.734375 288.3125 331.808594 303.871094 355.054688 327.347656 C 360.8125 333.15625 366.085938 339.445312 370.746094 346.167969 C 376.25 354.105469 381.207031 363.203125 381.78125 373.046875 C 382.800781 390.535156 368.382812 402.636719 354.449219 410.335938 C 322.933594 427.757812 284.640625 436.09375 248.835938 431.207031 C 214.585938 426.53125 182.953125 408.667969 162.855469 380.273438 C 144.011719 353.65625 135.339844 314.941406 153.167969 285.519531 C 173.65625 251.707031 220.914062 254.269531 253.488281 265.765625 C 270.234375 271.675781 285.878906 280.8125 299.199219 292.5625 C 312.316406 304.132812 325.878906 321.566406 321.597656 340.234375 C 319.539062 349.191406 313.601562 356.699219 307.214844 363.050781 C 301.601562 368.625 295.207031 373.398438 288.3125 377.269531 C 274.757812 384.890625 258.65625 389.289062 243.074219 387.089844 C 204.636719 381.667969 189.679688 338.464844 187.007812 304.792969 C 185.46875 285.359375 187.605469 265.277344 194.164062 246.867188 C 200.382812 229.410156 211.535156 214.632812 227.761719 205.394531 C 243.472656 196.449219 261.8125 192.949219 279.710938 192.308594 C 297.972656 191.648438 317.269531 193.234375 334.628906 199.21875 C 351.957031 205.191406 368.199219 217.605469 373.621094 235.789062 C 379.070312 254.058594 369.867188 272.359375 359.8125 287.191406 C 349.285156 302.722656 335.578125 316.113281 319.839844 326.320312 C 305.855469 335.386719 287.15625 344.503906 270.34375 337.890625 C 254.074219 331.488281 247.386719 312.984375 243.902344 297.28125 C 239.589844 277.832031 238.835938 257.554688 241.667969 237.832031 C 244.191406 220.261719 248.960938 201.015625 261.589844 187.8125 C 275.613281 173.148438 296.660156 171.265625 315.800781 172.960938 C 334.535156 174.621094 353.238281 178.730469 371.535156 182.964844 C 390.28125 187.308594 408.828125 192.5 427.113281 198.492188 C 426.992188 197.738281 426.867188 196.980469 426.746094 196.226562 C 417.183594 200.648438 412.191406 210.851562 410.546875 220.816406 C 408.476562 233.386719 411.519531 246.0625 411.179688 258.679688 C 410.507812 283.40625 395.351562 305.742188 380.511719 324.460938 C 349.910156 363.066406 306.773438 392.730469 257.054688 398.636719 C 233.355469 401.453125 208.757812 398.898438 186.664062 389.605469 C 165.65625 380.765625 146.988281 366.101562 133.839844 347.441406 C 120.449219 328.449219 112.609375 304.792969 115.011719 281.429688 C 116.28125 269.0625 120.792969 257.480469 127.894531 247.308594 C 135.152344 236.90625 144.597656 228.023438 154.558594 220.253906 C 174.511719 204.6875 197.828125 193.558594 222.429688 187.667969 C 234.796875 184.707031 247.480469 183.089844 260.199219 182.90625 C 272.675781 182.730469 285.695312 183.9375 296.90625 189.859375 C 307.027344 195.210938 315.738281 205.171875 316.875 216.914062 C 318.039062 228.941406 311.175781 239.960938 304.8125 249.570312 C 291.246094 270.058594 274.097656 288.191406 254.53125 303.035156 C 235.457031 317.515625 213.921875 329.183594 191.105469 336.554688 C 172.703125 342.503906 148.824219 345.9375 132.679688 332.589844 C 123.300781 324.835938 118.832031 312.777344 118.308594 300.855469 C 117.75 288.210938 121.574219 275.796875 126.507812 264.292969 C 136.160156 241.78125 149.226562 220.558594 164.445312 201.390625 C 179.492188 182.4375 196.917969 165.179688 216.308594 150.675781 C 226.128906 143.324219 238.371094 136.0625 251.035156 140.035156 C 260.300781 142.945312 266.679688 151.140625 270.945312 159.460938 C 276.054688 169.421875 278.554688 180.511719 280.75 191.410156 C 283.429688 204.71875 285.207031 218.1875 286.824219 231.65625 C 290.003906 258.148438 292.476562 284.964844 299.898438 310.699219 C 306.730469 334.394531 318.105469 358.609375 337.488281 374.605469 C 354.648438 388.769531 379.097656 395.226562 399.816406 385 C 419.378906 375.34375 431.140625 354.027344 432.394531 332.714844 C 433.113281 320.480469 430.710938 308.160156 426.3125 296.769531 C 424.160156 291.195312 421.539062 285.796875 418.519531 280.644531 C 415.683594 275.796875 412.570312 270.535156 407.785156 267.371094 C 398.667969 261.339844 388.316406 266.742188 381.027344 273.007812 C 376.519531 276.878906 372.742188 281.429688 368.824219 285.867188 C 364.476562 290.785156 360.03125 295.617188 355.484375 300.347656 C 337.5625 318.984375 318.015625 336.105469 296.726562 350.804688 C 253.085938 380.941406 201.414062 400.757812 147.964844 401.316406 C 123.367188 401.570312 97.785156 398.082031 75.953125 386.089844 C 55.222656 374.695312 37.9375 354.34375 35.246094 330.21875 C 32.554688 306.089844 44.082031 281.980469 59.277344 263.910156 C 74.472656 245.832031 94.945312 232.207031 117.59375 225.453125 C 138.855469 219.113281 162.636719 218.957031 183.332031 227.5 C 193.738281 231.792969 203.015625 238.285156 210.488281 246.71875 C 218.992188 256.316406 225.027344 267.890625 229.832031 279.699219 C 240.511719 305.949219 246.4375 333.84375 254.253906 361 C 261.257812 385.328125 269.597656 410.769531 287.433594 429.496094 C 302.414062 445.222656 323.570312 454.816406 345.242188 455.929688 C 368.90625 457.148438 392.839844 447.863281 409.671875 431.226562 C 426.148438 414.941406 435.109375 392.5625 439.636719 370.199219 C 442.203125 357.519531 443.523438 344.554688 443.65625 331.621094 C 443.746094 322.941406 444.796875 306.441406 432.324219 305.9375 C 427.445312 305.738281 422.714844 308.398438 418.84375 311.097656 C 413.304688 314.957031 408.019531 319.226562 402.679688 323.351562 C 391.835938 331.726562 381.078125 340.214844 370.1875 348.527344 C 348.589844 365.007812 326.351562 380.878906 302.167969 393.378906 C 278.058594 405.839844 251.855469 415.09375 224.691406 417.488281 C 202.027344 419.492188 179.042969 416.398438 158.097656 407.328125 C 138.535156 398.855469 121 385.277344 109.609375 367.085938 C 102.714844 356.078125 97.96875 343.359375 97.890625 330.257812 C 97.824219 318.632812 101.773438 307.40625 108.117188 297.761719 C 122.3125 276.175781 146.796875 264.792969 170.882812 257.960938 C 195.394531 251.007812 221.210938 248.007812 246.621094 250.589844 C 292.660156 255.273438 338.832031 280.882812 358.734375 324.164062 C 364.199219 336.042969 367.332031 349.417969 365.34375 362.496094 C 363.707031 373.265625 358.839844 383.289062 352.207031 391.859375 C 338.359375 409.761719 317.742188 421.894531 296.40625 428.695312 C 252.109375 442.816406 201.199219 434.503906 164.023438 406.46875 C 145.636719 392.601562 130.527344 373.769531 123.535156 351.625 C 116.855469 330.46875 117.363281 306.589844 126.964844 286.386719 C 137.417969 264.378906 157.984375 249.59375 179.53125 239.523438 C 204.546875 227.824219 232.046875 221.351562 259.636719 220.457031 C 272.253906 220.050781 284.984375 220.714844 297.351562 223.386719 C 309.183594 225.945312 321.296875 230.222656 330.71875 238.058594 C 340.089844 245.855469 345.289062 257.035156 342.183594 269.195312 C 339.371094 280.195312 331.652344 289.375 323.722656 297.160156 C 306.265625 314.300781 284.148438 326.902344 260.253906 332.375 C 237.757812 337.527344 214.109375 335.800781 192.871094 326.628906 C 173.421875 318.226562 156.316406 304.03125 145.777344 285.519531 C 134.9375 266.476562 130.796875 240.929688 143.929688 221.898438 C 150.546875 212.3125 160.589844 205.640625 171.015625 200.804688 C 182.4375 195.507812 194.808594 191.996094 207.148438 189.617188 C 232.535156 184.730469 259.59375 185.097656 284.585938 191.992188 C 307.6875 198.367188 329.835938 212.226562 338.949219 235.375 C 343.175781 246.113281 343.914062 257.800781 340.457031 268.855469 C 337.28125 278.992188 330.984375 287.855469 323.664062 295.429688 C 316.089844 303.265625 307.339844 309.855469 298.257812 315.835938 C 287.480469 322.929688 276.25 329.335938 264.628906 334.941406 C 241.710938 346 217.113281 353.980469 191.855469 357.367188 C 179.46875 359.027344 166.925781 359.585938 154.441406 358.878906 C 142.140625 358.183594 128.796875 356.921875 117.664062 351.214844 C 107.667969 346.089844 98.859375 335.394531 100.804688 323.484375 C 102.757812 311.515625 115.421875 303.945312 125.289062 298.925781 C 148.75 286.984375 176.34375 285.027344 202.179688 287.332031 C 223.820312 289.261719 245.691406 294.785156 264.472656 305.980469 C 273.710938 311.488281 282.144531 318.449219 288.910156 326.832031 C 296.941406 336.78125 303.34375 349.191406 302.4375 362.3125 C 300.890625 384.777344 279.808594 400.394531 261.414062 409.742188 C 238.558594 421.359375 212.488281 426.535156 186.925781 424.683594 C 166.804688 423.226562 135.417969 416.0625 136.203125 390.179688 C 136.996094 363.964844 166.515625 351.453125 188.050781 345.8125 C 210.890625 339.832031 235.230469 339.761719 258.128906 345.480469 C 263.796875 346.894531 269.390625 348.65625 274.832031 350.789062 C 280.128906 352.863281 285.835938 355.0625 290.363281 358.578125 C 295.035156 362.210938 297.265625 367.449219 294.972656 373.164062 C 292.894531 378.355469 288.570312 382.429688 284.558594 386.164062 C 266.390625 403.078125 243.304688 414.367188 218.867188 418.597656 C 217.289062 418.867188 218.019531 421.253906 219.582031 420.980469" fill="#171717"/></g></svg>