<?xml version="1.0" encoding="UTF-8"?><svg xmlns="http://www.w3.org/2000/svg" xmlns:xlink="http://www.w3.org/1999/xlink" height="450.5" preserveAspectRatio="xMidYMid meet" version="1.0" viewBox="-5.0 -8.8 513.4 450.5" width="513.4" zoomAndPan="magnify"><g id="change1_1"><path d="M228.1,305.6c0,0,46.5,59.7,58.1,97.9s42.3,24.9,36.5,0s-18.2-89.6-18.2-89.6L228.1,305.6z" fill="#AA1C20"/></g><g id="change2_1"><path d="M228.1,305.6c-51.4,28.2-117.8,5.8-125.3-55.6c-39.7,7.5-87.8-19-91.2-53.9c-14.1-9.1-14.9-29-5-35.7 C-5,118.1,29,92.4,47.2,89.1c1.7-38.2,41.5-47.3,55.6-44c9.1-34,70.5-43.1,88.8-30.7c11.6-16.6,38.2-17.2,48.9-5.3 c15.8-17.9,44.9-7.1,51.5,12c21.6-19.1,49-5.8,56.4,12.4c29-13.3,63,9.1,68.8,51.4c31.5-4.1,42.3,32.4,38.2,52.3 c30.7,2.5,21.6,32.4,19.9,34c22.4,4.1,19.3,33.5,17.5,38.3c12.3,10.6,5.9,28.1,1.2,33c14.4,35.7-8,48.1-15.5,48.9 c-4.1,24.9-24.9,25.8-40.6,26.2c-15.8,0.4-141.8,0-141.8,0L228.1,305.6z" fill="#F7A2A0"/></g><g id="change3_1"><path d="M427.2,338.1c-1.7,20.4-51.4,30.5-71.3,32.2s-70.5,0-73-30.7s28.2-34.6,68.8-34 C413.9,306.4,428.9,317.8,427.2,338.1z" fill="#E26F6F"/></g><g id="change1_2"><path d="M224.4,123.4c-5.4-15.9-0.3-33.9-0.1-34.7l0.5-1.9l1.9-0.7c22-8.1,33.8-29,31.5-55.7c-0.2-2.1,1.4-4,3.6-4.2 c2.1-0.2,4,1.4,4.2,3.6c2.5,29.7-10.4,53.1-34.6,63c-1,4.7-3.2,17.3,0.4,28.2c0.7,2.1-0.4,4.3-2.5,5c-0.4,0.1-0.8,0.2-1.2,0.2 C226.5,126.2,225,125.2,224.4,123.4z M64.5,209.6c-9.5-2.5-16.4-10.4-18.5-21.1c-1.8-9.4,0.4-22.6,12.1-31.3l-4.1-6.7 c-4.9,2.4-13.3,3.1-19.1,0c-1.9-1-4.3-0.3-5.3,1.6c-1,1.9-0.3,4.3,1.6,5.3c4,2.1,8.5,3,13,3c-5.7,8.5-8,19-5.9,29.6 c2.6,13.5,11.9,23.9,24.2,27.2c0.3,0.1,0.7,0.1,1,0.1c1.7,0,3.3-1.2,3.8-2.9C67.9,212.3,66.6,210.1,64.5,209.6z M132.6,69.7 c2.1,0.5,4.2-0.7,4.8-2.8c0.5-2.1-0.7-4.2-2.8-4.8c-2.6-0.7-5.2-1.2-7.7-1.5c5.8-7.3,17-12.8,30.6-14.7c18.6-2.6,36.4,2.1,44.3,11.8 c1.4,1.7,3.8,1.9,5.5,0.6c1.7-1.4,1.9-3.8,0.6-5.5c-1.6-2-3.5-3.8-5.7-5.4c4.7-2.5,7.7-6.7,11.2-15.5c0.8-2-0.2-4.3-2.2-5.1 c-2-0.8-4.3,0.2-5.1,2.2c-4.4,10.9-6.7,11.9-13,13.3c-10.2-4.4-23.2-5.9-36.8-4c-18.3,2.6-32.5,10.7-38.6,22 c-9.1,0.2-17.2,2.9-24.2,8.1c-19,13.9-25.4,43.1-26.2,58.1c-0.1,2.2,1.5,4,3.7,4.1c0.1,0,0.1,0,0.2,0c2.1,0,3.8-1.6,3.9-3.7 c0.1-1.5,2.2-36.9,23-52.2C107.4,67.8,118.9,66.2,132.6,69.7z M457.3,195.3c-3.5-6-9.2-10.5-16.2-12.8c0.3-6.6-0.7-13.5-2.9-19.2 c-2.7-6.9-7.1-11.5-12.7-13.1c-2.1-0.6-4.3,0.6-4.9,2.7c-0.6,2.1,0.6,4.3,2.7,4.9c4,1.2,6.3,5.2,7.6,8.4c3.8,9.8,2.6,23.8-1,29.8 c-1.1,1.9-0.5,4.3,1.3,5.4c0.6,0.4,1.3,0.6,2,0.6c1.3,0,2.6-0.7,3.4-1.9c1.6-2.6,2.7-5.9,3.5-9.5c4.5,1.8,8.1,4.8,10.4,8.7 c2.9,4.9,3.4,10.6,1.7,16.5c-0.6,2.1,0.6,4.3,2.6,4.9c0.4,0.1,0.7,0.2,1.1,0.2c1.7,0,3.3-1.1,3.8-2.8 C462.1,210,461.2,201.9,457.3,195.3z M341.4,117.6c-2.9-1-5.9-1.6-8.9-1.8c-10.1-8.9-11.3-22.8-9.2-31.9c0.5-2.1-0.9-4.2-3-4.7 c-2.1-0.5-4.2,0.9-4.7,3c-2.1,9.5-1.3,23.2,6.6,33.9c-10.8,1.7-21.1,7.5-28,16.5c-1.3,1.7-1,4.2,0.7,5.5s4.2,1,5.5-0.7 c9-11.8,24.9-16.8,38.5-12.3c4.3,1.4,8,3.7,11,6.6c0.1,0.1,0.1,0.1,0.2,0.2c5.4,5.4,8.4,13,8.5,22.2c0,2.2,1.8,3.9,3.9,3.9 c0,0,0,0,0.1,0c2.2,0,3.9-1.8,3.9-4c-0.1-10.1-3.3-18.9-8.9-25.5c3.5-5.3,7.7-8.9,11.5-9.7c1.7-0.4,3.2-0.1,4.4,0.7 c1.8,1.3,4.2,0.9,5.5-0.9s0.9-4.2-0.9-5.5c-3-2.2-6.8-2.9-10.7-2.1c-5.6,1.2-11.1,5.5-15.7,12C348.7,120.7,345.2,118.9,341.4,117.6z M189.2,107.8c1.4-8.8,6.2-17.7,14.4-26.9c1.5-1.6,1.3-4.1-0.3-5.5c-1.6-1.5-4.1-1.3-5.5,0.3c-7.3,8.1-12.2,16.3-14.8,24.5 c-5.3-3.7-12-5-18.9-3.5c-2.1,0.5-3.5,2.5-3,4.7c0.5,2.1,2.5,3.5,4.7,3c6-1.3,11.7,0.4,15.5,4.6c-1,10.5,1.9,20.8,8.8,30.4 c0.8,1.1,2,1.6,3.2,1.6c0.8,0,1.6-0.2,2.3-0.7c1.8-1.3,2.2-3.7,0.9-5.5c-6.1-8.4-8.5-17.1-7.4-26.1 C189.2,108.5,189.2,108.2,189.2,107.8z M272.9,130.4c0.2,0,0.4,0,0.7-0.1c2.1-0.4,3.6-2.4,3.2-4.5c-2.5-15-1.1-28.9,4-40.2 c4.5-9.9,11.9-17.8,20.9-22.1c0.9-0.4,1.7-0.8,2.6-1.1c0,0,0,0,0.1,0h0.1c15-5.9,31.2-1.7,43,11.3c1.5,1.6,3.9,1.7,5.5,0.3 c1.6-1.5,1.7-3.9,0.3-5.5C340.6,54.4,322.7,49,306,53.7c0-2.2,0.6-4.5,2-6.9c2.9-5.4,8-9,9.8-9.4c2.1-0.4,3.5-2.5,3-4.7 s-2.5-3.5-4.7-3c-4.3,0.9-11.2,6.2-15.1,13.3c-2.5,4.6-3.4,9.2-2.7,13.6c-10.6,5.1-19.3,14.4-24.6,26c-5.8,12.8-7.4,28.3-4.6,44.8 C269.4,129,271,130.4,272.9,130.4z M99.1,138.5c-2.1,0.5-3.4,2.6-2.9,4.7c0.4,1.8,2,3,3.8,3c0.3,0,0.6,0,0.9-0.1 c21.4-5,29-15.9,32.9-23.7l1.7-3.4l-3.4-1.8c-7.9-4.2-17.6-15.3-17.8-22.2c-0.1-2.2-1.8-3.9-4-3.8c-2.2,0.1-3.9,1.9-3.8,4 c0.2,9.1,9.4,20.6,18.5,26.8C121.2,128.2,114.4,134.9,99.1,138.5z M424.5,135.6c2.2,0,3.9-1.8,3.9-3.9c0-17.8-11.4-32.2-29.7-39.1 c0.6-4.1,0.1-8.7-1.7-13.1c-2.2-5.6-5.9-10.1-10-12.2c-1.9-1-4.3-0.2-5.3,1.8c-1,1.9-0.2,4.3,1.8,5.3c4.9,2.4,7.8,10.1,7.5,15.9 c-3.5-0.8-7.1-1.4-10.9-1.8c-2.2-0.2-4.1,1.4-4.3,3.6s1.4,4.1,3.6,4.3c24.6,2.1,41.2,16.3,41.2,35.3 C420.5,133.9,422.3,135.6,424.5,135.6z M449.7,237.5c-1.9-1.1-4.3-0.4-5.4,1.4c-4.1,7.1-19.3,13.7-25.1,13.3l-4.2-0.3v4.2 c0,17.7,18.3,31.5,26.7,35.1c0.5,0.2,1,0.3,1.5,0.3c1.5,0,3-0.9,3.6-2.4c0.9-2-0.1-4.3-2.1-5.2c-6.7-2.9-19.3-12.8-21.6-24.3 c9.2-1.5,22.9-8.3,27.9-16.9C452.2,241,451.5,238.6,449.7,237.5z M393.2,173c0.9-7.1,4.2-13,8.9-15.7c1.9-1.1,2.5-3.5,1.5-5.4 c-1.1-1.9-3.5-2.5-5.4-1.5c-6.8,3.9-11.6,11.9-12.8,21.5c-0.2,1.2-0.2,2.4-0.3,3.6c-6.9,3.8-11.6,11.9-16.6,20.3 c-4.6,7.8-9.3,15.8-15.9,21.1c-9.5,7.6-40.2,19.4-64.8,14.5c-13-2.6-22.6-9.3-28.6-20.1c-1-1.9-3.4-2.6-5.3-1.5 c-1.9,1.1-2.6,3.4-1.5,5.3c2.3,4.2,5.1,7.9,8.3,11.1c-13.1,5.7-29.8,5.7-40.2-5.5c-1.5-1.6-4-1.7-5.6-0.2c-1.6,1.5-1.7,4-0.2,5.6 c2.7,3,5.9,5.4,9.3,7.3c-11.1,4.6-22.7,5.6-31.6,2.8c-0.3-0.1-0.6-0.2-0.9-0.3c-3.6-1.3-6.8-3.2-9.2-5.7c-1.5-1.6-4-1.6-5.6-0.2 c-1.6,1.5-1.6,4-0.2,5.6c1.3,1.3,2.7,2.5,4.2,3.6c-15.4,3.7-32-1.2-36.4-4.9c-1.7-1.4-4.1-1.2-5.5,0.5c-1.4,1.7-1.2,4.1,0.5,5.5 c2.8,2.3,8,4.7,14.5,6.2c-8.7,10.6-8.3,26.5-6.5,34.7c0.4,1.8,2,3.1,3.8,3.1c0.3,0,0.6,0,0.9-0.1c2.1-0.5,3.5-2.6,3-4.7 c-1.4-6.3-2.4-23.8,8.5-31.5c1.8,0.2,3.7,0.3,5.6,0.3c7.2,0,14.8-1.2,21.8-4.4c3.8,1.1,8,1.6,12.4,1.6c9.9,0,20.8-2.8,30.9-8.5 c2.6,0.6,5.4,0.9,8.2,0.9h0.6c8.2,0,16.9-2.2,24.4-6.2c5.4,3.6,11.7,6.1,18.8,7.5c4.7,0.9,9.5,1.3,14.3,1.3 c24.4,0,48.4-10.6,56.9-17.4c7.7-6.2,13-15.2,17.7-23.2c3.5-5.9,6.8-11.6,10.6-15.1c1.7,9.1,6.5,17.7,13.8,24.8 c0.8,0.7,1.8,1.1,2.7,1.1c1,0,2-0.4,2.8-1.2c1.5-1.6,1.5-4-0.1-5.6C396.1,195.4,391.8,184.1,393.2,173z M342.3,263.2 c-16.9,9.5-42,7.2-58,0.3c0-0.1-3.7-1.6-5-2.5c-3.8-2.2-6.8-4.6-8.5-7.2c-1.2-1.8-3.7-2.3-5.5-1.1s-2.3,3.7-1.1,5.5 c1.8,2.6,4.4,5.1,7.7,7.4c-19.1,11.7-32,11.6-45.1,7.7c-2.1-0.6-4.3,0.6-4.9,2.6c-0.6,2.1,0.6,4.3,2.6,4.9 c5.9,1.8,11.6,2.7,17.1,2.7c12.2,0,24.2-4.4,38-13.5c9.7,4.5,22.3,7.4,35,7.4c11,0,22-2.2,31.2-7.4c1.9-1.1,2.6-3.5,1.5-5.4 C346.6,262.8,344.2,262.1,342.3,263.2z M152.9,194.1c16.7-7.5,40.2-7,58.4,1.4l3,1.4l1.9-2.7c11.1-15.6,29.7-25.5,49.8-26.4 c19-0.9,36.3,6.3,47.7,19.6c1.4,1.6,3.8,1.8,5.5,0.4c1.6-1.4,1.8-3.8,0.4-5.5c-12.9-15.2-32.6-23.4-54-22.4 c-21.4,1-41.3,11.1-53.9,27.2c-11.1-4.6-23.5-6.6-35.5-6.1c1.5-6.2,2.3-14.7,0.2-22.2c-0.5-2.1-2.7-3.3-4.8-2.7 c-2.1,0.5-3.3,2.7-2.7,4.8c2,7.1,0.6,15.8-1,20.9c-6.4,0.9-12.5,2.7-18.1,5.2c-7.2,3.3-12.9,7.8-16.7,13 c-6.5-13.5-17.5-23.5-32.8-29.8c-2-0.9-4.3,0.1-5.1,2.1c-0.9,2,0.1,4.3,2.1,5.1c15,6.1,24.9,15.7,30.2,29.3 c-15.8,5.3-27.8,22.9-28.6,43.1c-0.1,2.2,1.6,4,3.8,4.1c0.1,0,0.1,0,0.2,0c2.1,0,3.8-1.7,3.9-3.8c0.6-15.9,10.7-34,26.6-36.8 l2.4-0.4l0.7-2.3C138.5,204,144.4,198.2,152.9,194.1z" fill="#AA1C20"/></g></svg>